<svg xmlns="http://www.w3.org/2000/svg" xmlns:xlink="http://www.w3.org/1999/xlink" width="181.451" height="32.589" viewBox="0 0 181.451 32.589">
  <g id="Group_249" data-name="Group 249" transform="translate(-23.854 -19)">
    <g id="Group_237" data-name="Group 237">
      <path id="Path_449" data-name="Path 449" d="M51.339,28.686,31.451,22.574,36.921,35.3,30.872,47.706l20.952-5.869-13.993-6.6Z" fill="#80b4a0"/>
      <g id="Group_236" data-name="Group 236">
        <line id="Line_31" data-name="Line 31" x1="14.651" transform="translate(35.71 35.295)" fill="none" stroke="#231815" stroke-width="2.018"/>
        <g id="Group_233" data-name="Group 233">
          <path id="Path_450" data-name="Path 450" d="M33.191,24.778A16.757,16.757,0,0,0,23.854,19v2.492a14.271,14.271,0,0,1,0,27.6v2.492a16.692,16.692,0,0,0,9.337-26.811Z" fill="#231815"/>
          <g id="Group_232" data-name="Group 232">
            <path id="Path_451" data-name="Path 451" d="M23.854,23.453v-3.3h2.019v3.3Z" fill="#231815"/>
            <path id="Path_452" data-name="Path 452" d="M23.854,50.441v-3.3h2.019v3.3Z" fill="#231815"/>
          </g>
        </g>
        <g id="Group_235" data-name="Group 235">
          <path id="Path_453" data-name="Path 453" d="M52.88,24.778A16.756,16.756,0,0,1,62.218,19v2.492a14.27,14.27,0,0,0,0,27.6v2.492A16.692,16.692,0,0,1,52.88,24.778Z" fill="#231815"/>
          <g id="Group_234" data-name="Group 234">
            <path id="Path_454" data-name="Path 454" d="M62.218,23.453v-3.3H60.2v3.3Z" fill="#231815"/>
            <path id="Path_455" data-name="Path 455" d="M62.218,50.441v-3.3H60.2v3.3Z" fill="#231815"/>
          </g>
        </g>
        <path id="Path_456" data-name="Path 456" d="M25.921,20.99l25.9,7.762L35.71,35.3" fill="none" stroke="#231815" stroke-linejoin="round" stroke-width="2.018"/>
        <path id="Path_457" data-name="Path 457" d="M25.921,49.6l25.9-7.762L35.71,35.3" fill="none" stroke="#231815" stroke-linejoin="round" stroke-width="2.018"/>
      </g>
    </g>
    <g id="Group_248" data-name="Group 248">
      <g id="Group_238" data-name="Group 238">
        <path id="Path_458" data-name="Path 458" d="M74.333,22.742h1.184a6.353,6.353,0,0,0,.855-.048v.9c-.264-.024-.52-.04-.864-.04h-.9A5.223,5.223,0,0,0,76.6,25.548a2.094,2.094,0,0,0-.56.832,5.172,5.172,0,0,1-.9-.84,5.687,5.687,0,0,1-.855-1.223c.024.272.032.56.032.791v1.008a7.288,7.288,0,0,0,.048.927h-.919a7.868,7.868,0,0,0,.047-.927v-.952c0-.223.008-.511.033-.823a5.729,5.729,0,0,1-1.895,2.071,3.6,3.6,0,0,0-.5-.76,5.241,5.241,0,0,0,2.039-2.1h-.528a6.852,6.852,0,0,0-.871.048v-.327a2.493,2.493,0,0,0-.345.671,4.7,4.7,0,0,1-.487-1c.016.265.032.7.032,1.056v2.047a7.908,7.908,0,0,0,.048.983H70.1a8.341,8.341,0,0,0,.047-.983V24.333a9,9,0,0,1,.057-1.031,6.329,6.329,0,0,1-.84,1.886A2.912,2.912,0,0,0,69,24.3a7.344,7.344,0,0,0,1.071-2.415h-.32a2.427,2.427,0,0,0-.535.04v-.863a2.355,2.355,0,0,0,.535.04h.4v-.648a5.037,5.037,0,0,0-.047-.823h.919a6.876,6.876,0,0,0-.04.823V21.1h.24a2.24,2.24,0,0,0,.432-.032v.791a5.157,5.157,0,0,0,.607-1.943l.816.208a4.358,4.358,0,0,0-.12.432c-.048.184-.064.24-.1.392H73.5V20.4a4.907,4.907,0,0,0-.047-.76h.927a4.7,4.7,0,0,0-.048.76v.552h.943a5.883,5.883,0,0,0,.856-.048v.879a6.2,6.2,0,0,0-.856-.048h-.943ZM72.59,21.734a5.138,5.138,0,0,1-.448.888,2.938,2.938,0,0,0-.655-.52c.072-.1.1-.128.136-.192a2.861,2.861,0,0,0-.392-.024h-.2a5.4,5.4,0,0,0,.752,1.264v-.456a6.436,6.436,0,0,0,.871.048H73.5V21.734Z" fill="#231815"/>
        <path id="Path_459" data-name="Path 459" d="M83.532,21.023a3.944,3.944,0,0,0,.776-.048v.9a7.009,7.009,0,0,0-.935-.048H82.205a9.111,9.111,0,0,0,.56,3.079,2.61,2.61,0,0,0,.48.791.588.588,0,0,0,.183.144c.1,0,.193-.384.3-1.215a3.586,3.586,0,0,0,.76.448,3.693,3.693,0,0,1-.456,1.5.689.689,0,0,1-.551.335,1.65,1.65,0,0,1-1.064-.775,5.824,5.824,0,0,1-.888-2.407,12.576,12.576,0,0,1-.191-1.9h-3.2a8.392,8.392,0,0,0-.935.048v-.9a7.349,7.349,0,0,0,.935.048H81.3c-.024-.416-.024-.416-.024-.656a4.6,4.6,0,0,0-.049-.624H82.2a5.489,5.489,0,0,0-.032.648c0,.136,0,.368.008.632h.944a4.917,4.917,0,0,0-.76-.944l.7-.328a7.092,7.092,0,0,1,.791.9l-.647.368Zm-5.237,2.558a7.755,7.755,0,0,0-.807.04v-.847a7.089,7.089,0,0,0,.823.04h1.935a6.8,6.8,0,0,0,.808-.04v.847a7.73,7.73,0,0,0-.8-.04H79.7V25.4c.559-.112.871-.176,1.639-.367v.815c-1.352.328-2.615.583-3.686.744-.072.016-.16.031-.3.055l-.144-.9a11.369,11.369,0,0,0,1.607-.184V23.581Z" fill="#231815"/>
        <path id="Path_460" data-name="Path 460" d="M86.719,22.254a7.518,7.518,0,0,1-1.279.688,3.716,3.716,0,0,0-.464-.816,7.447,7.447,0,0,0,2.007-1.112,5.256,5.256,0,0,0,1.263-1.342H89.2A4.865,4.865,0,0,0,90.549,21,8.481,8.481,0,0,0,92.6,22.078a3.574,3.574,0,0,0-.44.9,8.393,8.393,0,0,1-1.367-.727v.624a5.869,5.869,0,0,0-.72-.032h-2.67a6.152,6.152,0,0,0-.688.032Zm-.44,2.063a7.488,7.488,0,0,0-.943.048v-.928a7.84,7.84,0,0,0,.943.048h4.982a7.526,7.526,0,0,0,.935-.048v.928a7.437,7.437,0,0,0-.935-.048H88.51a8.748,8.748,0,0,1-.831,1.551c1.415-.08,1.415-.08,2.534-.2-.255-.28-.392-.424-.839-.887l.791-.352a16.215,16.215,0,0,1,1.847,2.135l-.767.5c-.264-.391-.344-.5-.48-.695-.664.088-1.143.143-1.439.176-.792.071-2.375.215-2.695.239A10.033,10.033,0,0,0,85.6,26.9l-.128-.975c.216.016.352.024.464.024.056,0,.3-.008.7-.032a8.278,8.278,0,0,0,.856-1.6Zm3.79-2.311c.128,0,.2,0,.352-.008a6.509,6.509,0,0,1-1.671-1.551A6.841,6.841,0,0,1,87.087,22c.136.008.184.008.328.008Z" fill="#231815"/>
        <path id="Path_461" data-name="Path 461" d="M95.143,26.2a5.657,5.657,0,0,0,.04.815h-.968a4.766,4.766,0,0,0,.048-.831V24.181a5.394,5.394,0,0,1-.887.68,3.1,3.1,0,0,0-.408-.832,5.472,5.472,0,0,0,1.375-1.08,4.742,4.742,0,0,0,.872-1.23h-1.3a5.5,5.5,0,0,0-.672.031v-.887a5.071,5.071,0,0,0,.632.032h.4v-.672a3.682,3.682,0,0,0-.048-.608h.968a3.417,3.417,0,0,0-.048.624V20.9h.328a3.053,3.053,0,0,0,.464-.024l.383.415a2.273,2.273,0,0,0-.176.336,6.568,6.568,0,0,1-.8,1.368A4.713,4.713,0,0,0,96.614,24a3.412,3.412,0,0,0-.44.784,4.387,4.387,0,0,1-1.031-.9Zm3.39-.376h.96a6.856,6.856,0,0,0,.911-.048v.967a6.728,6.728,0,0,0-.911-.055H96.758a6.613,6.613,0,0,0-.9.055V25.78a7.255,7.255,0,0,0,.92.048h.872V22.7h-.6c-.272,0-.528.016-.784.04v-.9a5.4,5.4,0,0,0,.784.04h.6V20.471a5.661,5.661,0,0,0-.057-.832h1a4.69,4.69,0,0,0-.056.832v1.407h.847a5.2,5.2,0,0,0,.784-.04v.9c-.256-.024-.5-.04-.784-.04h-.847Z" fill="#231815"/>
      </g>
      <g id="Group_239" data-name="Group 239">
        <path id="Path_462" data-name="Path 462" d="M162.985,47.577a7.252,7.252,0,0,0-.78-.738l.288-.5a1.942,1.942,0,0,1,.179.144,5.017,5.017,0,0,0,.487-.972l.557.168a9.125,9.125,0,0,1-.66,1.181c.151.162.2.216.24.258a9.294,9.294,0,0,0,.606-1l.521.241c-.353.611-1.018,1.535-1.151,1.7.2-.007.3-.012.63-.025-.054-.15-.084-.227-.144-.359l.45-.168a5.519,5.519,0,0,1,.4,1.037l-.48.186c-.03-.114-.042-.144-.06-.2-.108.011-.318.023-.4.023v2.585h-.57V48.6c-.558.036-.617.036-.809.048l-.03-.551a3.306,3.306,0,0,0,.365-.013C162.72,47.961,162.888,47.721,162.985,47.577Zm-.072,1.457a7.006,7.006,0,0,1-.2,1.673l-.5-.138a6.46,6.46,0,0,0,.2-1.619Zm1.4-.054a5.121,5.121,0,0,1,.1,1.055l-.491.079a8.244,8.244,0,0,0-.072-1.074Zm.815.372a3.817,3.817,0,0,1-.389,1.547l-.552-.282a3.051,3.051,0,0,0,.462-1.379Zm.792-3.628a5.222,5.222,0,0,1-1.223,1.481l-.39-.45a3.658,3.658,0,0,0,1.062-1.229Zm-.48,2.674c-.138.007-.522.024-.653.024v-.534c.066,0,.126,0,.275-.005a11.847,11.847,0,0,0,.576-1.415l.611.131a7.486,7.486,0,0,1-.581,1.26c.24-.006.894-.042,1.169-.055a4.328,4.328,0,0,0-.456-.641l.492-.294a5.762,5.762,0,0,1,.972,1.433l-.546.318a3.014,3.014,0,0,0-.162-.323c-.647.059-.731.066-1.5.095a4.11,4.11,0,0,1,.978.522l-.3.48a4.143,4.143,0,0,0-1.121-.582Zm.438,1.02V50.4c0,.12.03.138.126.138h.306c.12,0,.174,0,.21-.635l.594.119c-.115.84-.157,1.068-.5,1.068h-.858c-.186,0-.45-.042-.45-.306V49.418Zm1.8-2.267a4,4,0,0,1-1.2-1.427l.527-.24a3.239,3.239,0,0,0,1,1.169Zm-.234,1.889a6.5,6.5,0,0,1,.534,1.541l-.57.2a7.029,7.029,0,0,0-.486-1.547Z" fill="#231815"/>
        <path id="Path_463" data-name="Path 463" d="M170.754,47.289a7.15,7.15,0,0,1-.953.486l-.366-.624a6.123,6.123,0,0,0,2.572-1.661h.588a6.183,6.183,0,0,0,2.579,1.661l-.372.624a6.911,6.911,0,0,1-.9-.474v.426h-3.143Zm-.695,1.037h4.467v2.783h-.635v-.234h-3.2v.234h-.629Zm.629.57v1.415h3.2V48.9Zm2.975-1.745a6.674,6.674,0,0,1-1.373-1.133,5.775,5.775,0,0,1-1.32,1.133Z" fill="#231815"/>
        <path id="Path_464" data-name="Path 464" d="M179.148,45.508h.7v.737a4.56,4.56,0,0,0,2.537,4.234l-.414.612A4.98,4.98,0,0,1,179.5,47.9a4.917,4.917,0,0,1-2.465,3.19l-.444-.6a4.331,4.331,0,0,0,2.034-1.991,5.374,5.374,0,0,0,.527-2.231Z" fill="#231815"/>
        <path id="Path_465" data-name="Path 465" d="M183.781,49.124a5.229,5.229,0,0,0,1.091-1.949h-.965V46.6h.977V45.5h.617v1.1h.834v.576H185.5v.408a3.351,3.351,0,0,0,.942,1.085l-.39.54a3.278,3.278,0,0,1-.552-.834v2.747h-.617V48.344a4.5,4.5,0,0,1-.834,1.5Zm2.14.588a6.578,6.578,0,0,0,2.141-2.513h-1.541v-.6h1.613V45.5h.63v1.1h.755v.6h-.755v3.412c0,.408-.408.51-.618.51h-.965l-.1-.624h.8c.222,0,.258-.03.258-.222V48.182a6.3,6.3,0,0,1-1.757,2.058Z" fill="#231815"/>
        <path id="Path_466" data-name="Path 466" d="M192.348,48.992a11.354,11.354,0,0,1-.9,2.081l-.474-.522a6.921,6.921,0,0,0,.881-1.859Zm-1.008-1.811a2.989,2.989,0,0,1,.924.576l-.353.485a4.232,4.232,0,0,0-.894-.6Zm.294-1.625a4.321,4.321,0,0,1,.9.546l-.366.533a5.331,5.331,0,0,0-.9-.587Zm5.169,2.56a4.2,4.2,0,0,1-.959.78,4.035,4.035,0,0,0,.948,1.715l-.426.522A5.849,5.849,0,0,1,195,47.625c-.257.048-.372.06-.449.072v3.436h-.594V47.769c-.114.012-.234.024-.509.042v.179a6.983,6.983,0,0,1-.174,1.638,3.884,3.884,0,0,1-.612,1.505l-.564-.366a4.183,4.183,0,0,0,.75-2.795V45.934a17.334,17.334,0,0,0,3.46-.468l.252.564a15.837,15.837,0,0,1-3.112.443v.81a9.853,9.853,0,0,0,3.015-.648l.265.516a10.752,10.752,0,0,1-1.176.354c.025.156.061.354.144.75a3.273,3.273,0,0,0,.7-.576Z" fill="#231815"/>
        <path id="Path_467" data-name="Path 467" d="M198.217,50.443a6.741,6.741,0,0,0,.636-.455V48.4h-.582v-.612h1.188V49.55a.784.784,0,0,0,.527.677,1.672,1.672,0,0,0,.75.15h3.232l-.133.594h-3a1.505,1.505,0,0,1-1.5-.69,5.851,5.851,0,0,1-.869.846Zm.57-4.887a6.932,6.932,0,0,1,.876,1.061l-.5.4a7.317,7.317,0,0,0-.816-1.086Zm2.716-.072h.546v.252H203.5v1.031h-1.451v.24h1.828v.4h-4.209v-.4H201.5v-.24h-1.451V45.736H201.5Zm1.943,2.195v1.067H200.61v.264h3.034v1.122h-3.592V47.679ZM200.6,46.114v.27h.9v-.27Zm.012,1.949v.293h2.278v-.293Zm0,1.349v.3h2.476v-.3Zm1.439-3.3v.27h.893v-.27Z" fill="#231815"/>
      </g>
      <g id="Group_240" data-name="Group 240">
        <path id="Path_468" data-name="Path 468" d="M145.048,26.32a4.072,4.072,0,0,0,.861-1.722,9.5,9.5,0,0,0,.3-1.977l.465.06a6.393,6.393,0,0,1-1.242,3.934Zm3.384-3.7a5.8,5.8,0,0,0,1.2,3.689l-.395.305a6.539,6.539,0,0,1-1.281-3.943Z" fill="#231815"/>
        <path id="Path_469" data-name="Path 469" d="M155.028,24.318V24.8h-4.444v-.481Z" fill="#231815"/>
        <path id="Path_470" data-name="Path 470" d="M155.933,24.854c.2-.216,1.022-1.226,1.2-1.422a.883.883,0,0,1,.621-.335c.156,0,.33.02.741.43l2.2,2.192-.37.391-2.278-2.357a.519.519,0,0,0-.32-.18c-.165,0-.33.225-.525.48-.125.165-.666.916-.787,1.061-.044.05-.109.125-.129.145Zm3.659-1.252a5.561,5.561,0,0,0-.506-.71l.295-.191a5.294,5.294,0,0,1,.516.681Zm.62-.345a5.615,5.615,0,0,0-.51-.681l.285-.195a4.741,4.741,0,0,1,.521.656Z" fill="#231815"/>
        <path id="Path_471" data-name="Path 471" d="M161.484,26.315a5.455,5.455,0,0,0,2.988-3.208h-2.727v-.43h3.342a5.761,5.761,0,0,1-.991,2.086,21.292,21.292,0,0,1,1.742,1.547l-.371.37a15.827,15.827,0,0,0-1.64-1.576,5.624,5.624,0,0,1-2.068,1.581Z" fill="#231815"/>
        <path id="Path_472" data-name="Path 472" d="M167.537,22.381v1.327a10.4,10.4,0,0,1,2.551,1.115l-.24.446a10.465,10.465,0,0,0-2.311-1.1V26.8h-.481V22.381Z" fill="#231815"/>
        <path id="Path_473" data-name="Path 473" d="M171.669,22.6v1.577a8.785,8.785,0,0,0,2.538-.936l.27.4a9.689,9.689,0,0,1-2.808.976v1.166c0,.3.04.371.581.371h1.516a6.789,6.789,0,0,0,1.057-.075l.024.465c-.49.05-1.076.05-1.126.05h-1.536c-.791,0-.986-.2-.986-.72V22.6Zm2.753.581a4.975,4.975,0,0,0-.355-.751l.309-.13a3.973,3.973,0,0,1,.376.736Zm.646-.14a4.4,4.4,0,0,0-.36-.731l.309-.135a3.679,3.679,0,0,1,.366.716Z" fill="#231815"/>
        <path id="Path_474" data-name="Path 474" d="M178.232,26.776h-.426V24.928a5.745,5.745,0,0,1-1.576.787l-.205-.366a6.153,6.153,0,0,0,2.952-2.057l.376.27a11.014,11.014,0,0,1-1.121,1.056Z" fill="#231815"/>
        <path id="Path_475" data-name="Path 475" d="M184.363,26.7a14.9,14.9,0,0,0-1.642-1.576,6.291,6.291,0,0,1-2.072,1.582l-.295-.386a5.78,5.78,0,0,0,1.821-1.256,3.581,3.581,0,0,0,1.067-1.882h-2.6v-.426h3.143a4.293,4.293,0,0,1-.791,2.033,22.758,22.758,0,0,1,1.767,1.561Zm-.336-3.7a2.919,2.919,0,0,0-.25-.761l.36-.07a3.935,3.935,0,0,1,.266.741Zm.631-.065a3.2,3.2,0,0,0-.255-.746l.349-.075a3.194,3.194,0,0,1,.276.726Z" fill="#231815"/>
        <path id="Path_476" data-name="Path 476" d="M187.465,22.427l.451-.046.1.916,1.742-.18.035.431-1.726.179.115,1.032,1.977-.2.04.426-1.972.195.18,1.6-.46.029-.176-1.581-1.986.2-.036-.43,1.977-.2-.115-1.03-1.7.175-.04-.426,1.687-.175Z" fill="#231815"/>
        <path id="Path_477" data-name="Path 477" d="M192.054,23.347l.416-.05.14.826,2.072-.3a2.3,2.3,0,0,1-1.056,1.887l-.291-.291a1.669,1.669,0,0,0,.841-1.151l-1.506.235.38,2.248-.435.05-.361-2.233-1,.155-.059-.39,1-.145Z" fill="#231815"/>
        <path id="Path_478" data-name="Path 478" d="M196.385,25.239h-.47V22.576h.47Zm2.6-.706c0,1.982-1.567,2.127-2.688,2.232l-.135-.435c1.252-.07,2.342-.255,2.342-1.642v-2.2h.481Z" fill="#231815"/>
        <path id="Path_479" data-name="Path 479" d="M204.533,22.6a2.6,2.6,0,0,1-1.567,2.1l-.291-.371a1.938,1.938,0,0,0,1.257-1.3h-3.648V22.6Zm-4.089,3.734c1.3-.54,1.521-1.486,1.536-2.8l.49.005a3.091,3.091,0,0,1-1.731,3.153Z" fill="#231815"/>
      </g>
      <g id="Group_242" data-name="Group 242">
        <g id="Group_241" data-name="Group 241">
          <path id="Path_480" data-name="Path 480" d="M78.9,42.55H76.6V36.019H72.643V42.55H70.349V29.624h2.294v5.814H76.6V29.624H78.9Z" fill="#231815"/>
        </g>
      </g>
      <g id="Group_244" data-name="Group 244">
        <g id="Group_243" data-name="Group 243">
          <path id="Path_481" data-name="Path 481" d="M136.445,39.048q0,3.636-5.3,3.637a20.357,20.357,0,0,1-3.128-.27V29.8a18.593,18.593,0,0,1,3.212-.309q4.9,0,4.9,3.038a2.688,2.688,0,0,1-1.189,2.3,4.946,4.946,0,0,1-2.752.812Q136.444,35.991,136.445,39.048ZM133.9,32.522a2.65,2.65,0,0,0-.667-1.9,2.464,2.464,0,0,0-1.876-.706,3.727,3.727,0,0,0-1.085.136v5.388h.854a2.712,2.712,0,0,0,2.035-.763A2.974,2.974,0,0,0,133.9,32.522Zm.25,6.471a2.959,2.959,0,0,0-.943-2.274,3.133,3.133,0,0,0-2.181-.8h-.754v6.122a7.879,7.879,0,0,0,1.194.116Q134.152,42.161,134.152,38.993Z" fill="#231815"/>
        </g>
      </g>
      <g id="Group_246" data-name="Group 246">
        <g id="Group_245" data-name="Group 245">
          <path id="Path_482" data-name="Path 482" d="M165.867,41.388a8.411,8.411,0,0,1-5,1.375,7.485,7.485,0,0,1-5.528-1.937,6.371,6.371,0,0,1-1.793-4.73,6.361,6.361,0,0,1,1.981-4.825,7.214,7.214,0,0,1,5.172-1.879,8.562,8.562,0,0,1,4.879,1.221l-.564.813a4.3,4.3,0,0,0-1.687-1.041,6.305,6.305,0,0,0-2.212-.413,4.5,4.5,0,0,0-3.69,1.781,6.514,6.514,0,0,0-1.4,4.276,6.527,6.527,0,0,0,1.437,4.3,4.682,4.682,0,0,0,3.795,1.819,6.5,6.5,0,0,0,2.484-.485,4.871,4.871,0,0,0,1.667-1.065Z" fill="#231815"/>
        </g>
      </g>
      <g id="Group_247" data-name="Group 247">
        <path id="Path_483" data-name="Path 483" d="M78.9,42.55H76.6V36.019H72.642V42.55H70.348V29.624h2.294v5.814H76.6V29.624H78.9Z" fill="#231815"/>
        <path id="Path_484" data-name="Path 484" d="M87.779,42.55H85.673v-.466a2.978,2.978,0,0,1-1.909.562,3.026,3.026,0,0,1-1.618-.387,1.759,1.759,0,0,1-.935-1.55,1.871,1.871,0,0,1,1.013-1.725,3.716,3.716,0,0,1,1.838-.407,4.642,4.642,0,0,1,1.611.252V37.641q0-2.592-1.92-2.591a2.068,2.068,0,0,0-1.859,1.085l-.537-.407a3.718,3.718,0,0,1,2.919-1.162q3.5,0,3.5,2.829Zm-2.106-.836V39.257a2.415,2.415,0,0,0-1.033-.2,1.378,1.378,0,0,0-.952.351,1.454,1.454,0,0,0-.5,1.19,1.4,1.4,0,0,0,.5,1.171,1.43,1.43,0,0,0,.91.292A1.6,1.6,0,0,0,85.673,41.714Z" fill="#231815"/>
        <path id="Path_485" data-name="Path 485" d="M94.618,35.767a3.62,3.62,0,0,0-.646-.1,1.664,1.664,0,0,0-1.585.7V42.55H90.24V34.8h2.147v1.143a2.962,2.962,0,0,1,.855-.93,2.448,2.448,0,0,1,1.376-.445Z" fill="#231815"/>
        <path id="Path_486" data-name="Path 486" d="M102.062,34.8l-3.273,7.965h-.543l-3.5-7.965h2.273l2.127,5.426,2.064-5.426Z" fill="#231815"/>
        <path id="Path_487" data-name="Path 487" d="M110.756,37.181h-5.3a6.115,6.115,0,0,0-.145,1.454,4.558,4.558,0,0,0,.52,2.287,2.368,2.368,0,0,0,2.222,1.259,3.166,3.166,0,0,0,2.243-.852l.353.5a5.009,5.009,0,0,1-3,.93,5.16,5.16,0,0,1-3.252-.969,3.526,3.526,0,0,1-1.376-2.985,4.073,4.073,0,0,1,1.125-2.984A4.359,4.359,0,0,1,107.42,34.6a3.47,3.47,0,0,1,2.586.911A2.671,2.671,0,0,1,110.756,37.181Zm-1.6-.426q-.1-1.782-1.606-1.783a1.766,1.766,0,0,0-1.4.659,3.007,3.007,0,0,0-.605,1.124Z" fill="#231815"/>
        <path id="Path_488" data-name="Path 488" d="M117.2,40.36a2.074,2.074,0,0,1-1.1,1.976,3.831,3.831,0,0,1-1.876.427,3.674,3.674,0,0,1-2.607-.95l.48-.6a2.4,2.4,0,0,0,1.918,1.007,1.331,1.331,0,0,0,.959-.339,1.163,1.163,0,0,0,.355-.882,1.376,1.376,0,0,0-.376-.93,7.012,7.012,0,0,0-1.1-.852q-1.75-1.183-1.751-2.287a2.078,2.078,0,0,1,1-1.9,3.492,3.492,0,0,1,1.814-.446,3.325,3.325,0,0,1,2.064.6l-.417.581a1.61,1.61,0,0,0-1.418-.7,1.083,1.083,0,0,0-1.23,1.221q0,.621,1.167,1.434a8.5,8.5,0,0,1,1.481,1.182A2.133,2.133,0,0,1,117.2,40.36Z" fill="#231815"/>
        <path id="Path_489" data-name="Path 489" d="M123.058,42.24a2.554,2.554,0,0,1-1.585.445,2.406,2.406,0,0,1-1.855-.6,2.485,2.485,0,0,1-.5-1.724V35.341h-.9V34.8h.9V32.4h2.065v2.4h1.73v.543h-1.73v4.534a6.318,6.318,0,0,0,.145,1.648.766.766,0,0,0,.772.639.958.958,0,0,0,.709-.329Z" fill="#231815"/>
        <path id="Path_490" data-name="Path 490" d="M136.444,39.048q0,3.637-5.3,3.637a20.2,20.2,0,0,1-3.128-.271V29.8a18.608,18.608,0,0,1,3.211-.31q4.9,0,4.9,3.038a2.689,2.689,0,0,1-1.188,2.3,4.96,4.96,0,0,1-2.753.813Q136.444,35.99,136.444,39.048ZM133.9,32.522a2.66,2.66,0,0,0-.667-1.9,2.463,2.463,0,0,0-1.877-.7,3.724,3.724,0,0,0-1.084.136v5.388h.854a2.7,2.7,0,0,0,2.034-.763A2.966,2.966,0,0,0,133.9,32.522Zm.25,6.471a2.961,2.961,0,0,0-.943-2.274,3.13,3.13,0,0,0-2.18-.8h-.755v6.123a7.923,7.923,0,0,0,1.195.117Q134.149,42.162,134.15,38.993Z" fill="#231815"/>
        <path id="Path_491" data-name="Path 491" d="M140.676,31.252a.989.989,0,0,1-.321.736,1.059,1.059,0,0,1-.763.31,1.026,1.026,0,0,1-.753-.31,1,1,0,0,1-.31-.736.974.974,0,0,1,.31-.727,1.045,1.045,0,0,1,.753-.3,1.079,1.079,0,0,1,.763.3A.96.96,0,0,1,140.676,31.252Zm0,11.3h-2.147V34.8h2.147Z" fill="#231815"/>
        <path id="Path_492" data-name="Path 492" d="M148.788,34.8,144.7,42.007h4v.543h-6.568l4.025-7.209H142.8V34.8Z" fill="#231815"/>
        <path id="Path_493" data-name="Path 493" d="M165.864,41.387a8.4,8.4,0,0,1-5,1.376,7.476,7.476,0,0,1-5.526-1.938,6.37,6.37,0,0,1-1.793-4.729,6.356,6.356,0,0,1,1.981-4.825,7.2,7.2,0,0,1,5.171-1.88,8.557,8.557,0,0,1,4.879,1.221l-.564.814a4.3,4.3,0,0,0-1.688-1.042,6.306,6.306,0,0,0-2.21-.411,4.5,4.5,0,0,0-3.691,1.78,6.52,6.52,0,0,0-1.4,4.276,6.519,6.519,0,0,0,1.438,4.3,4.679,4.679,0,0,0,3.795,1.819,6.51,6.51,0,0,0,2.482-.485,4.881,4.881,0,0,0,1.668-1.065Z" fill="#231815"/>
        <path id="Path_494" data-name="Path 494" d="M173.683,42.55h-2.106v-.466a2.981,2.981,0,0,1-1.91.562,3.029,3.029,0,0,1-1.619-.387,1.761,1.761,0,0,1-.933-1.55,1.873,1.873,0,0,1,1.011-1.725,3.722,3.722,0,0,1,1.839-.407,4.648,4.648,0,0,1,1.612.252V37.641q0-2.592-1.921-2.591a2.069,2.069,0,0,0-1.859,1.085l-.537-.407a3.722,3.722,0,0,1,2.92-1.162q3.5,0,3.5,2.829Zm-2.106-.836V39.257a2.42,2.42,0,0,0-1.034-.2,1.38,1.38,0,0,0-.952.351,1.454,1.454,0,0,0-.5,1.19,1.4,1.4,0,0,0,.5,1.171,1.43,1.43,0,0,0,.91.292A1.605,1.605,0,0,0,171.577,41.714Z" fill="#231815"/>
        <path id="Path_495" data-name="Path 495" d="M180.522,35.767a3.652,3.652,0,0,0-.647-.1,1.661,1.661,0,0,0-1.584.7V42.55h-2.148V34.8h2.148v1.143a2.958,2.958,0,0,1,.854-.93,2.447,2.447,0,0,1,1.377-.445Z" fill="#231815"/>
        <path id="Path_496" data-name="Path 496" d="M189.007,37.181h-5.3a6.167,6.167,0,0,0-.145,1.454,4.569,4.569,0,0,0,.519,2.287,2.369,2.369,0,0,0,2.223,1.259,3.166,3.166,0,0,0,2.243-.852l.353.5a5,5,0,0,1-3,.93,5.161,5.161,0,0,1-3.253-.969,3.526,3.526,0,0,1-1.376-2.985,4.07,4.07,0,0,1,1.126-2.984,4.355,4.355,0,0,1,3.273-1.221,3.466,3.466,0,0,1,2.585.911A2.667,2.667,0,0,1,189.007,37.181Zm-1.605-.426q-.1-1.782-1.606-1.783a1.767,1.767,0,0,0-1.4.659,2.993,2.993,0,0,0-.6,1.124Z" fill="#231815"/>
        <path id="Path_497" data-name="Path 497" d="M197.973,37.181h-5.3a6.168,6.168,0,0,0-.145,1.454,4.568,4.568,0,0,0,.519,2.287,2.369,2.369,0,0,0,2.223,1.259,3.166,3.166,0,0,0,2.243-.852l.353.5a5.008,5.008,0,0,1-3,.93,5.161,5.161,0,0,1-3.253-.969,3.526,3.526,0,0,1-1.376-2.985,4.07,4.07,0,0,1,1.126-2.984,4.355,4.355,0,0,1,3.273-1.221,3.466,3.466,0,0,1,2.585.911A2.678,2.678,0,0,1,197.973,37.181Zm-1.605-.426q-.1-1.782-1.606-1.783a1.767,1.767,0,0,0-1.4.659,2.979,2.979,0,0,0-.605,1.124Z" fill="#231815"/>
        <path id="Path_498" data-name="Path 498" d="M204.062,35.767a3.645,3.645,0,0,0-.646-.1,1.662,1.662,0,0,0-1.585.7V42.55h-2.148V34.8h2.148v1.143a2.958,2.958,0,0,1,.854-.93,2.447,2.447,0,0,1,1.377-.445Z" fill="#231815"/>
      </g>
      <line id="Line_32" data-name="Line 32" x2="128.7" transform="translate(76.604 42.599)" fill="none" stroke="#231815" stroke-width="0.15"/>
    </g>
  </g>
</svg>